<?xml version="1.0" encoding="utf-8"?>
<!-- Generator: Adobe Illustrator 25.2.1, SVG Export Plug-In . SVG Version: 6.00 Build 0)  -->
<svg version="1.1" id="Lager_1" xmlns="http://www.w3.org/2000/svg" xmlns:xlink="http://www.w3.org/1999/xlink" x="0px" y="0px"
	 viewBox="0 0 121.9 113.4" style="enable-background:new 0 0 121.9 113.4;" xml:space="preserve">
<style type="text/css">
	.st0{fill:#C8D130;}
	.st1{fill:#E0D832;}
	.st2{fill:#284966;}
	.st3{fill:#58998F;}
	.st4{fill:#6BA942;}
	.st5{opacity:0.5;}
	.st6{fill:#C6CF31;}
	.st7{fill:#EFEC97;}
	.st8{fill:#93A1B2;}
	.st9{fill:#ABCCC7;}
	.st10{fill:#B2D09F;}
	.st11{fill:#20201E;}
	.st12{fill:#A5A6A6;}
	.st13{fill:#FFFFFF;}
	.st14{fill:#FFFFFF;stroke:#FFFFFF;stroke-width:0.25;stroke-miterlimit:10;}
</style>
<g>
	<g>
		<path class="st0" d="M78.9,11.3c-2.1-0.5-3.5-2.4-3.3-4.6c0.2-2.4,2.3-4.2,4.7-4c2.4,0.2,4.2,2.3,4,4.7c-0.2,2.2-1.9,3.8-4.1,4
			 M80.2,11.5l-1.4,16.8c0,0.2-0.2,0.3-0.4,0.3l-0.6-0.1c-0.2,0-0.3-0.2-0.3-0.4l1.4-16.8"/>
	</g>
	<g>
		<path class="st0" d="M78.4,28.7C78.4,28.7,78.4,28.7,78.4,28.7l-0.7-0.1c-0.3,0-0.4-0.2-0.4-0.5l1.4-16.7
			c-2.1-0.6-3.5-2.5-3.3-4.7c0.2-2.5,2.4-4.3,4.9-4.1c2.5,0.2,4.3,2.4,4.1,4.9c-0.2,2.2-1.9,3.9-4.1,4.1l-1.4,16.7
			C78.8,28.5,78.6,28.7,78.4,28.7z M78.9,11.3l0.1,0l-1.4,16.8c0,0.1,0,0.1,0.1,0.2c0,0,0.1,0.1,0.1,0.1l0.6,0.1c0,0,0.1,0,0.2-0.1
			c0,0,0.1-0.1,0.1-0.1L80,11.4l0.1,0l0-0.1c2.1-0.1,3.8-1.8,4-3.9c0.2-2.3-1.5-4.4-3.9-4.6c-2.3-0.2-4.4,1.5-4.6,3.9
			c-0.2,2.1,1.2,4,3.2,4.5L78.9,11.3z"/>
	</g>
</g>
<g>
	<g>
		<path class="st0" d="M57.6,16.7c-1.9,0.8-4.3,0.2-5.4-1.7c-1.3-2-0.7-4.7,1.4-6s4.7-0.7,6,1.4c1.2,1.9,0.8,4.2-0.9,5.6 M58.7,16
			l8.9,14.3c0.1,0.2,0.1,0.4-0.1,0.5L67,31.1c-0.2,0.1-0.4,0.1-0.5-0.1l-8.9-14.3"/>
	</g>
	<g>
		<path class="st0" d="M66.9,31.3c0,0-0.1,0-0.1,0c-0.1,0-0.2-0.1-0.3-0.2l-8.9-14.2c-2,0.8-4.3,0.1-5.5-1.8c-0.6-1-0.8-2.2-0.6-3.4
			c0.3-1.2,1-2.2,2-2.8c2.1-1.3,4.9-0.7,6.2,1.4c1.2,1.9,0.8,4.2-0.8,5.7l8.9,14.2c0.1,0.2,0.1,0.5-0.1,0.6l-0.5,0.3
			C67,31.2,66.9,31.3,66.9,31.3z M57.7,16.6l8.9,14.3c0,0,0.1,0.1,0.1,0.1c0.1,0,0.1,0,0.2,0l0.5-0.3c0.1-0.1,0.1-0.2,0.1-0.3
			l-8.9-14.3l0.1-0.1l-0.1-0.1c1.6-1.4,2-3.7,0.8-5.5c-1.2-2-3.9-2.6-5.9-1.3c-1,0.6-1.6,1.5-1.9,2.7c-0.3,1.1-0.1,2.2,0.5,3.2
			c1.1,1.8,3.3,2.5,5.3,1.6l0.1,0.1L57.7,16.6z"/>
	</g>
</g>
<g>
	<g>
		<path class="st1" d="M43.6,33.5c-1.1,1.8-3.4,2.6-5.4,1.7c-2.2-0.9-3.3-3.5-2.3-5.7s3.5-3.3,5.7-2.3c2,0.8,3,3,2.5,5.1 M44.1,32.3
			l15.5,6.6c0.2,0.1,0.3,0.3,0.2,0.4l-0.2,0.6c-0.1,0.2-0.3,0.3-0.4,0.2l-15.5-6.6"/>
	</g>
	<g>
		<path class="st1" d="M59.3,40.2c-0.1,0-0.1,0-0.2,0l-15.4-6.5c-1.2,1.8-3.5,2.6-5.5,1.7c-2.3-1-3.4-3.6-2.4-5.9
			c1-2.3,3.6-3.4,5.9-2.4c2,0.9,3.1,3,2.6,5.1l15.4,6.5c0.2,0.1,0.3,0.4,0.2,0.6l-0.2,0.6C59.6,40.1,59.5,40.2,59.3,40.2z
			 M43.7,33.3l15.5,6.6c0.1,0,0.2,0,0.3-0.1l0.2-0.6c0-0.1,0-0.2-0.1-0.3l-15.5-6.6l0-0.1l-0.1,0c0.5-2.1-0.5-4.1-2.5-5
			c-2.2-0.9-4.7,0.1-5.6,2.3c-0.9,2.2,0.1,4.7,2.3,5.6c1.9,0.8,4.1,0.1,5.2-1.7l0.1,0.1L43.7,33.3z"/>
	</g>
</g>
<g>
	<g>
		<path class="st2" d="M94.2,77.3l-8.7-14.4c-0.1-0.2,0-0.4,0.1-0.5l0.5-0.3c0.2-0.1,0.4,0,0.5,0.1l8.7,14.4 M95.3,76.6
			c2-0.8,4.3-0.1,5.4,1.8c1.2,2.1,0.6,4.8-1.5,6c-2.1,1.2-4.8,0.6-6-1.5c-1.1-1.9-0.7-4.3,1-5.6"/>
	</g>
	<g>
		<path class="st2" d="M97.2,85.1c-1.6,0.1-3.2-0.7-4.1-2.2c-1.1-1.9-0.8-4.3,0.9-5.7l-8.6-14.3c-0.1-0.1-0.1-0.2-0.1-0.4
			c0-0.1,0.1-0.2,0.2-0.3l0.5-0.3c0.1-0.1,0.2-0.1,0.4-0.1c0.1,0,0.2,0.1,0.3,0.2l8.6,14.3c2-0.8,4.3,0,5.5,1.9
			c1.3,2.1,0.6,4.9-1.5,6.2C98.6,84.9,97.9,85.1,97.2,85.1z M94.2,77.3L94.2,77.3c-1.6,1.4-1.9,3.7-0.8,5.5c1.2,2,3.8,2.6,5.8,1.4
			c2-1.2,2.6-3.8,1.4-5.8c-1.1-1.8-3.3-2.5-5.2-1.7l0-0.1l-0.1,0.1l-8.7-14.4c0,0-0.1-0.1-0.1-0.1c-0.1,0-0.1,0-0.2,0l-0.5,0.3
			c0,0-0.1,0.1-0.1,0.1c0,0.1,0,0.1,0,0.2l8.7,14.4L94.2,77.3z"/>
	</g>
</g>
<g>
	<g>
		<path class="st3" d="M108.8,61l-15.5-6.6c-0.2-0.1-0.3-0.3-0.2-0.4l0.2-0.6c0.1-0.2,0.3-0.3,0.4-0.2l15.5,6.6 M109.3,59.8
			c1.1-1.8,3.4-2.6,5.4-1.7c2.2,0.9,3.3,3.5,2.3,5.7c-0.9,2.2-3.5,3.3-5.7,2.3c-2-0.8-3-3-2.5-5.1"/>
	</g>
	<g>
		<path class="st3" d="M113.2,66.6c-0.7,0-1.3-0.1-1.9-0.3c-2-0.9-3.1-3-2.6-5.1l-15.4-6.5c-0.1,0-0.2-0.1-0.2-0.3
			c0-0.1,0-0.2,0-0.4l0.2-0.6c0-0.1,0.1-0.2,0.3-0.2c0.1,0,0.2,0,0.4,0l15.4,6.5c1.2-1.8,3.5-2.6,5.5-1.7c1.1,0.5,2,1.3,2.4,2.4
			c0.5,1.1,0.4,2.3,0,3.4c-0.5,1.1-1.3,2-2.4,2.4C114.2,66.5,113.7,66.6,113.2,66.6z M108.8,61l0.1,0c-0.5,2.1,0.5,4.1,2.5,5
			c1,0.4,2.2,0.4,3.2,0c1.1-0.4,1.9-1.2,2.3-2.3c0.4-1,0.4-2.2,0-3.2c-0.4-1-1.2-1.9-2.3-2.3c-1.9-0.8-4.1-0.1-5.2,1.7l-0.1-0.1
			l0,0.1l-15.5-6.6c-0.1,0-0.1,0-0.2,0c-0.1,0-0.1,0.1-0.1,0.1l-0.2,0.6c0,0.1,0,0.1,0,0.2c0,0.1,0.1,0.1,0.1,0.1l15.5,6.6L108.8,61
			z"/>
	</g>
</g>
<g>
	<g>
		<path class="st3" d="M111.1,39.3l-16.4,3.8c-0.2,0-0.4-0.1-0.4-0.3l-0.1-0.6c0-0.2,0.1-0.4,0.3-0.4l16.4-3.8 M110.8,38
			c-0.2-2.1,1.2-4.1,3.3-4.6c2.3-0.6,4.7,0.9,5.3,3.3s-0.9,4.7-3.3,5.3c-2.1,0.5-4.3-0.7-5-2.6"/>
	</g>
	<g>
		<path class="st3" d="M94.6,43.2c-0.2,0-0.4-0.1-0.5-0.4L94,42.2c-0.1-0.3,0.1-0.5,0.3-0.6l16.3-3.8c-0.1-2.2,1.3-4.1,3.4-4.6
			c2.4-0.6,4.8,0.9,5.4,3.4c0.6,2.4-0.9,4.8-3.4,5.4c-2.1,0.5-4.3-0.6-5.1-2.6l-16.3,3.8C94.7,43.2,94.6,43.2,94.6,43.2z M110.8,38
			l0,0.1l-16.4,3.8c-0.1,0-0.2,0.1-0.2,0.3l0.1,0.6c0,0.1,0.1,0.2,0.3,0.2l16.4-3.8l0,0.1l0.1,0c0.8,2,2.8,3,4.9,2.6
			c2.3-0.5,3.7-2.8,3.2-5.1c-0.5-2.3-2.8-3.7-5.1-3.2c-2,0.5-3.4,2.4-3.2,4.5L110.8,38z"/>
	</g>
</g>
<g>
	<g>
		<path class="st4" d="M99.1,19.5c-1.4-1.6-1.5-4-0.1-5.7c1.6-1.8,4.3-2.1,6.2-0.5s2.1,4.3,0.5,6.2c-1.4,1.7-3.8,2-5.6,0.9
			 M100.1,20.3L89.3,33.2c-0.1,0.1-0.3,0.2-0.5,0l-0.5-0.4c-0.1-0.1-0.2-0.3,0-0.5l10.8-12.9"/>
	</g>
	<g>
		<path class="st4" d="M89,33.4c-0.1,0-0.2,0-0.3-0.1l-0.5-0.4c-0.1-0.1-0.2-0.2-0.2-0.3c0-0.1,0-0.2,0.1-0.3l10.8-12.8
			c-1.4-1.7-1.4-4.1,0-5.8c0.8-0.9,1.9-1.5,3-1.6c1.2-0.1,2.4,0.3,3.3,1c0.9,0.8,1.5,1.9,1.6,3.1c0.1,1.2-0.3,2.4-1,3.3
			c-1.4,1.7-3.8,2.1-5.7,1L89.4,33.3C89.3,33.4,89.2,33.4,89,33.4C89,33.4,89,33.4,89,33.4z M99.1,19.5L99.1,19.5l-10.8,13
			c0,0-0.1,0.1,0,0.2c0,0.1,0,0.1,0.1,0.1l0.5,0.4c0,0,0.1,0.1,0.1,0.1c0,0,0,0,0,0c0.1,0,0.1,0,0.1-0.1L100,20.2l0.1,0.1l0.1-0.1
			c1.8,1.1,4.1,0.7,5.5-0.9c0.7-0.9,1.1-2,1-3.1c-0.1-1.1-0.6-2.2-1.5-2.9c-0.9-0.7-2-1.1-3.1-1c-1.1,0.1-2.2,0.6-2.9,1.5
			C97.8,15.5,97.8,17.8,99.1,19.5L99.1,19.5z"/>
	</g>
</g>
<g class="st5">
	<g>
		<path class="st6" d="M69.6,20.1c-1.6,0.1-3.2-1-3.5-2.7c-0.4-1.9,0.7-3.8,2.6-4.2c1.9-0.4,3.8,0.7,4.2,2.6c0.4,1.7-0.5,3.3-2,4
			 M70.9,19.8l2,8.6c0,0.2-0.1,0.4-0.3,0.4L72.1,29c-0.2,0-0.4-0.1-0.4-0.3l-2-8.6"/>
	</g>
	<g>
		<path class="st6" d="M72,29.1c-0.1,0-0.2,0-0.3-0.1c-0.1-0.1-0.2-0.2-0.2-0.3l-2-8.5c-1.7,0-3.2-1.1-3.6-2.8
			c-0.5-1.9,0.8-3.9,2.7-4.4c1.9-0.5,3.9,0.8,4.4,2.7c0.4,1.7-0.4,3.4-2,4.1l2,8.5c0,0.1,0,0.2-0.1,0.4c-0.1,0.1-0.2,0.2-0.3,0.2
			L72,29.1C72.1,29.1,72,29.1,72,29.1z M69.8,20.1l2,8.6c0,0.1,0,0.1,0.1,0.1c0,0,0.1,0,0.2,0l0.6-0.1c0.1,0,0.1,0,0.1-0.1
			c0,0,0-0.1,0-0.2l-2-8.6l0.1,0l-0.1-0.1c1.5-0.7,2.3-2.3,1.9-3.8c-0.2-0.9-0.7-1.6-1.5-2.1c-0.8-0.5-1.7-0.6-2.5-0.4
			c-1.8,0.4-2.9,2.2-2.5,4.1c0.4,1.6,1.8,2.7,3.4,2.6l0,0.1L69.8,20.1z"/>
	</g>
</g>
<g>
	<g>
		<path class="st7" d="M55.4,29.2c-1.3,1-3.2,1-4.4-0.1c-1.5-1.3-1.6-3.5-0.4-4.9c1.3-1.5,3.5-1.6,4.9-0.4c1.3,1.1,1.6,3,0.7,4.4
			 M56.2,28.2l6.7,5.8c0.1,0.1,0.2,0.3,0,0.5L62.5,35c-0.1,0.1-0.3,0.2-0.5,0l-6.7-5.8"/>
	</g>
	<g>
		<path class="st7" d="M62.3,35.2c-0.1,0-0.2,0-0.3-0.1l-6.6-5.7c-1.4,1-3.2,0.9-4.5-0.2c-0.7-0.6-1.2-1.5-1.2-2.5
			c-0.1-1,0.2-1.9,0.9-2.6c1.3-1.5,3.6-1.7,5.1-0.4c1.3,1.1,1.6,3,0.8,4.5l6.6,5.7c0.1,0.1,0.2,0.2,0.2,0.3c0,0.1,0,0.2-0.1,0.3
			L62.6,35C62.5,35.1,62.4,35.2,62.3,35.2z M55.5,29.1l6.7,5.8c0.1,0.1,0.2,0.1,0.3,0l0.4-0.5c0,0,0.1-0.1,0.1-0.2
			c0-0.1,0-0.1-0.1-0.1l-6.7-5.8l0.1-0.1l-0.1-0.1c0.8-1.4,0.5-3.2-0.7-4.2c-1.4-1.2-3.5-1.1-4.8,0.3c-0.6,0.7-0.9,1.6-0.8,2.4
			c0.1,0.9,0.5,1.7,1.2,2.3c1.2,1.1,3,1.1,4.3,0.1L55.5,29.1L55.5,29.1z"/>
	</g>
</g>
<g>
	<g>
		<path class="st8" d="M96.7,65.1L90,59.3c-0.1-0.1-0.2-0.3,0-0.5l0.4-0.5c0.1-0.1,0.3-0.2,0.5,0l6.7,5.8 M97.6,64.1
			c1.3-1,3.2-1,4.4,0.1c1.5,1.3,1.6,3.5,0.4,4.9c-1.3,1.5-3.5,1.6-4.9,0.4c-1.3-1.1-1.6-3-0.7-4.4"/>
	</g>
	<g>
		<path class="st8" d="M99.7,70.4c-0.8,0-1.7-0.3-2.4-0.9c-1.3-1.1-1.6-3-0.8-4.5L90,59.4c-0.1-0.1-0.2-0.2-0.2-0.3s0-0.2,0.1-0.3
			l0.4-0.5c0.1-0.1,0.2-0.1,0.3-0.2c0.1,0,0.2,0,0.3,0.1l6.6,5.7c1.4-1,3.2-0.9,4.5,0.2c1.5,1.3,1.7,3.6,0.4,5.1
			C101.8,70,100.7,70.4,99.7,70.4z M96.7,65.1l0.1,0.1c-0.8,1.4-0.5,3.2,0.7,4.2c0.7,0.6,1.6,0.9,2.4,0.8c0.9-0.1,1.7-0.5,2.3-1.2
			c1.2-1.4,1.1-3.5-0.3-4.8c-1.2-1.1-3-1.1-4.3-0.1l-0.1-0.1l-0.1,0.1l-6.7-5.8c0,0-0.1-0.1-0.2-0.1c-0.1,0-0.1,0-0.1,0.1l-0.4,0.5
			c0,0-0.1,0.1-0.1,0.2c0,0.1,0,0.1,0.1,0.1L96.7,65.1L96.7,65.1z"/>
	</g>
</g>
<g>
	<g>
		<path class="st9" d="M103.7,49.6l-8.8-0.8c-0.2,0-0.3-0.2-0.3-0.4l0.1-0.6c0-0.2,0.2-0.3,0.4-0.3l8.8,0.8 M103.8,48.3
			c0.4-1.6,2-2.7,3.7-2.5c1.9,0.2,3.4,1.9,3.2,3.8c-0.2,1.9-1.9,3.4-3.8,3.2c-1.7-0.1-3-1.5-3.2-3.1"/>
	</g>
	<g>
		<path class="st9" d="M107.3,52.9c-0.2,0-0.3,0-0.5,0c-1.7-0.1-3.1-1.5-3.3-3.1L94.9,49c-0.1,0-0.2-0.1-0.3-0.2
			c-0.1-0.1-0.1-0.2-0.1-0.3l0.1-0.6c0-0.3,0.3-0.4,0.5-0.4l8.7,0.7c0.5-1.6,2.1-2.7,3.8-2.5c2,0.2,3.5,1.9,3.3,3.9
			c-0.1,1-0.5,1.8-1.3,2.5C108.9,52.6,108.1,52.9,107.3,52.9z M103.8,49.6c0.2,1.6,1.5,2.9,3.1,3c0.9,0.1,1.8-0.2,2.5-0.8
			c0.7-0.6,1.1-1.4,1.2-2.3c0.2-1.9-1.2-3.5-3.1-3.6c-1.6-0.1-3.1,0.9-3.5,2.4l-0.1,0l0,0.1L95,47.7c-0.1,0-0.1,0-0.2,0.1
			c0,0-0.1,0.1-0.1,0.1l-0.1,0.6c0,0.1,0.1,0.2,0.2,0.2l8.8,0.8l0,0.1L103.8,49.6z"/>
	</g>
</g>
<g>
	<g>
		<path class="st10" d="M99.6,32c-0.6-1.5,0-3.3,1.5-4.2c1.7-1,3.8-0.5,4.8,1.2c1,1.7,0.5,3.8-1.2,4.8c-1.5,0.9-3.3,0.6-4.4-0.7
			 M100.2,33.1l-7.6,4.5c-0.2,0.1-0.4,0-0.5-0.1L91.9,37c-0.1-0.2,0-0.4,0.1-0.5l7.6-4.5"/>
	</g>
	<g>
		<path class="st10" d="M92.5,37.8c0,0-0.1,0-0.1,0c-0.1,0-0.2-0.1-0.3-0.2L91.8,37c-0.1-0.1-0.1-0.2-0.1-0.4c0-0.1,0.1-0.2,0.2-0.3
			l7.5-4.5c-0.5-1.6,0.1-3.4,1.6-4.3c1.7-1,3.9-0.5,5,1.2c1,1.7,0.5,3.9-1.2,5c-1.5,0.9-3.3,0.6-4.5-0.6l-7.5,4.5
			C92.7,37.8,92.6,37.8,92.5,37.8z M99.6,32l0.1,0.1l-7.5,4.5c0,0-0.1,0.1-0.1,0.1c0,0.1,0,0.1,0,0.2l0.3,0.5c0,0,0.1,0.1,0.1,0.1
			c0.1,0,0.1,0,0.2,0l7.6-4.5l0.1,0.1l0.1-0.1c1.1,1.2,2.9,1.5,4.3,0.6c1.6-1,2.1-3,1.1-4.6c-1-1.6-3-2.1-4.6-1.1
			c-1.4,0.8-2,2.5-1.4,4L99.6,32z"/>
	</g>
</g>
<g>
	<g>
		<path class="st10" d="M86.5,21.2c-1.4-0.9-1.9-2.7-1.3-4.3c0.7-1.8,2.8-2.6,4.6-1.9c1.8,0.7,2.6,2.8,1.9,4.6
			c-0.7,1.6-2.3,2.4-4,2.1 M87.7,21.7l-3.4,8.1C84.2,30,84,30.1,83.9,30l-0.6-0.2c-0.2-0.1-0.3-0.3-0.2-0.4l3.4-8.1"/>
	</g>
	<g>
		<path class="st10" d="M84,30.2c-0.1,0-0.1,0-0.2,0l-0.6-0.2c-0.1,0-0.2-0.1-0.2-0.3c0-0.1,0-0.2,0-0.4l3.4-8
			c-1.4-1-1.9-2.8-1.2-4.4c0.8-1.8,2.9-2.7,4.7-1.9c0.9,0.4,1.6,1.1,1.9,2c0.4,0.9,0.4,1.9,0,2.8c-0.7,1.6-2.3,2.5-4,2.2l-3.4,8
			c0,0.1-0.1,0.2-0.3,0.2C84.1,30.1,84.1,30.2,84,30.2z M86.5,21.2l0.1,0l-3.4,8.1c0,0.1,0,0.1,0,0.2c0,0.1,0.1,0.1,0.1,0.1l0.6,0.2
			c0.1,0,0.1,0,0.2,0c0.1,0,0.1-0.1,0.1-0.1l3.4-8.1l0.1,0l0-0.1c1.6,0.3,3.2-0.5,3.8-2c0.3-0.8,0.4-1.7,0-2.6
			c-0.3-0.8-1-1.5-1.8-1.8c-1.7-0.7-3.7,0.1-4.4,1.8c-0.6,1.5-0.1,3.2,1.2,4.1L86.5,21.2z"/>
	</g>
</g>
<g>
	<path class="st2" d="M19.5,60.6h-1.1c-0.9,0-1.5-0.5-1.5-1.5v-3.9c0-3.9-1.6-5.6-5.3-5.6c-3.7,0-5.3,1.7-5.3,5.6v2.9
		c0,2.7,0.9,3.6,3.7,5.1l5.8,3.2c3.2,1.8,5.3,3.9,5.3,7.4v5.4c0,6-3.2,8.5-9.4,8.5h-0.1c-6.2,0-9.4-2.5-9.4-8.5v-5.3
		c0-1,0.5-1.5,1.5-1.5h1.1c0.9,0,1.5,0.5,1.5,1.5v4.3c0,3.9,1.6,5.7,5.3,5.7s5.3-1.9,5.3-5.7V75c0-2.7-1.1-3.8-3.9-5.4l-5.7-3.2
		c-3.6-2-5.2-3.7-5.2-7.2v-4.9c0-5.7,3.7-8.4,9.3-8.4h0.1c5.6,0,9.3,2.7,9.3,8.4v4.8C21.1,60.1,20.5,60.6,19.5,60.6z"/>
	<path class="st2" d="M40.5,66c3.8,0.6,4.8,3.7,4.8,6.5v6.7c0,4.8-3.3,8.1-9.5,8.1h-8.3c-1,0-1.5-0.5-1.5-1.5V47.9
		c0-1,0.5-1.5,1.5-1.5H36c6.2,0,9.1,3.3,9.1,8.1v5.1C45.1,62.3,44.1,65.6,40.5,66z M30.2,64.2h5.7c3.3,0,5-1.3,5-4.1v-4.7
		c0-3.5-1.4-5.3-5-5.3h-5.7V64.2z M36.1,68h-5.9v15.5h5.9c3.6,0,5-1.8,5-5.3v-6.1C41.1,69.3,39.4,68,36.1,68z"/>
	<path class="st2" d="M69.5,55v23.6c0,5.8-3.4,8.6-9.6,8.6h-8.2c-1,0-1.5-0.5-1.5-1.5V47.9c0-1,0.5-1.5,1.5-1.5h8.2
		C66.1,46.4,69.5,49.2,69.5,55z M59.6,50.2h-5.3v33.3h5.3c3.9,0,5.6-1.6,5.6-5.9V56.1C65.3,51.8,63.6,50.2,59.6,50.2z"/>
	<path class="st2" d="M76.9,87.2h-1.1c-1,0-1.5-0.5-1.5-1.5V47.9c0-1,0.5-1.5,1.5-1.5h1.1c1,0,1.6,0.5,1.6,1.5v37.8
		C78.5,86.7,77.9,87.2,76.9,87.2z"/>
</g>
<g>
	<path class="st2" d="M5.3,95.5H5c-0.2,0-0.3-0.1-0.3-0.3v-0.6c0-0.6-0.3-0.8-0.8-0.8S3.2,94,3.2,94.5V95c0,0.4,0.2,0.6,0.5,0.8
		l0.9,0.5c0.6,0.3,1,0.7,1,1.3v1c0,1-0.6,1.5-1.7,1.5h0c-1.1,0-1.7-0.4-1.7-1.5v-0.9c0-0.2,0.1-0.3,0.3-0.3h0.3
		c0.2,0,0.3,0.1,0.3,0.3v0.7c0,0.5,0.3,0.8,0.8,0.8c0.5,0,0.8-0.2,0.8-0.8v-0.5c0-0.4-0.1-0.6-0.6-0.8l-0.9-0.5
		c-0.6-0.4-1-0.7-1-1.3v-0.9c0-1,0.7-1.4,1.7-1.4h0c1,0,1.7,0.4,1.7,1.4v0.8C5.6,95.3,5.5,95.5,5.3,95.5z"/>
	<path class="st2" d="M13.4,93.3l-1,6.3c0,0.2-0.2,0.3-0.3,0.3h-0.3c-0.2,0-0.3-0.1-0.4-0.3l-0.9-4.9l-1,4.9c0,0.2-0.2,0.3-0.4,0.3
		H8.8c-0.2,0-0.3-0.1-0.3-0.3l-1-6.3c0-0.2,0.1-0.3,0.3-0.3H8c0.2,0,0.3,0.1,0.3,0.3l0.7,5l0.9-5c0-0.2,0.2-0.3,0.4-0.3h0.3
		c0.2,0,0.3,0.1,0.4,0.3l0.9,5l0.7-5c0-0.2,0.2-0.3,0.3-0.3h0.2C13.3,93,13.4,93.1,13.4,93.3z"/>
	<path class="st2" d="M18,100h-2.3c-0.2,0-0.3-0.1-0.3-0.3v-6.3c0-0.2,0.1-0.3,0.3-0.3H18c0.2,0,0.3,0.1,0.3,0.3v0.2
		c0,0.2-0.1,0.3-0.3,0.3h-1.7V96h1.4c0.2,0,0.3,0.1,0.3,0.3v0.2c0,0.2-0.1,0.3-0.3,0.3h-1.4v2.3H18c0.2,0,0.3,0.1,0.3,0.3v0.2
		C18.3,99.9,18.2,100,18,100z"/>
	<path class="st2" d="M23.8,94.5v4c0,1-0.6,1.5-1.7,1.5h-1.4c-0.2,0-0.3-0.1-0.3-0.3v-6.3c0-0.2,0.1-0.3,0.3-0.3h1.4
		C23.2,93,23.8,93.4,23.8,94.5z M22.1,93.8h-0.8v5.3h0.8c0.5,0,0.8-0.2,0.8-0.8v-3.7C22.9,94,22.6,93.8,22.1,93.8z"/>
	<path class="st2" d="M26.7,100h-0.3c-0.2,0-0.3-0.1-0.3-0.3v-6.3c0-0.2,0.1-0.3,0.3-0.3h0.3c0.2,0,0.3,0.1,0.3,0.3v6.3
		C27.1,99.9,26.9,100,26.7,100z"/>
	<path class="st2" d="M32.3,95.5H32c-0.2,0-0.3-0.1-0.3-0.3v-0.6c0-0.6-0.3-0.8-0.8-0.8s-0.8,0.2-0.8,0.8V95c0,0.4,0.2,0.6,0.5,0.8
		l0.9,0.5c0.6,0.3,1,0.7,1,1.3v1c0,1-0.6,1.5-1.7,1.5h0c-1.1,0-1.7-0.4-1.7-1.5v-0.9c0-0.2,0.1-0.3,0.3-0.3h0.3
		c0.2,0,0.3,0.1,0.3,0.3v0.7c0,0.5,0.3,0.8,0.8,0.8c0.5,0,0.8-0.2,0.8-0.8v-0.5c0-0.4-0.1-0.6-0.6-0.8l-0.9-0.5
		c-0.6-0.4-1-0.7-1-1.3v-0.9c0-1,0.7-1.4,1.7-1.4h0c1,0,1.7,0.4,1.7,1.4v0.8C32.6,95.3,32.5,95.5,32.3,95.5z"/>
	<path class="st2" d="M35.1,93h0.3c0.2,0,0.3,0.1,0.3,0.3V96h1.6v-2.7c0-0.2,0.1-0.3,0.3-0.3H38c0.2,0,0.3,0.1,0.3,0.3v6.3
		c0,0.2-0.1,0.3-0.3,0.3h-0.3c-0.2,0-0.3-0.1-0.3-0.3v-2.8h-1.6v2.8c0,0.2-0.1,0.3-0.3,0.3h-0.3c-0.2,0-0.3-0.1-0.3-0.3v-6.3
		C34.8,93.1,34.9,93,35.1,93z"/>
	<path class="st2" d="M46.1,96.4c0.6,0.1,0.8,0.6,0.8,1.1v1.1c0,0.8-0.6,1.4-1.7,1.4h-1.4c-0.2,0-0.3-0.1-0.3-0.3v-6.3
		c0-0.2,0.1-0.3,0.3-0.3h1.4c1.1,0,1.6,0.5,1.6,1.4v0.9C46.8,95.7,46.7,96.3,46.1,96.4z M44.4,96h0.8c0.5,0,0.7-0.2,0.7-0.6v-0.8
		c0-0.5-0.2-0.7-0.7-0.7h-0.8V96z M45.2,96.8h-0.8v2.4h0.8c0.5,0,0.7-0.2,0.7-0.7v-1C45.9,97,45.7,96.8,45.2,96.8z"/>
	<path class="st2" d="M49.7,100h-0.3c-0.2,0-0.3-0.1-0.3-0.3v-6.3c0-0.2,0.1-0.3,0.3-0.3h0.3c0.2,0,0.3,0.1,0.3,0.3v6.3
		C50,99.9,49.9,100,49.7,100z"/>
	<path class="st2" d="M54.1,92.9L54.1,92.9c1.1,0,1.8,0.4,1.8,1.5v4.2c0,1-0.6,1.5-1.7,1.5h-0.1c-1.1,0-1.7-0.4-1.7-1.5v-4.2
		C52.4,93.4,53,92.9,54.1,92.9z M54.1,99.2c0.5,0,0.8-0.2,0.8-0.8v-3.8c0-0.6-0.3-0.8-0.8-0.8s-0.8,0.2-0.8,0.8v3.8
		C53.3,99,53.6,99.2,54.1,99.2z"/>
	<path class="st2" d="M61.6,94.5v4c0,1-0.6,1.5-1.7,1.5h-1.4c-0.2,0-0.3-0.1-0.3-0.3v-6.3c0-0.2,0.1-0.3,0.3-0.3h1.4
		C60.9,93,61.6,93.4,61.6,94.5z M59.8,93.8h-0.8v5.3h0.8c0.5,0,0.8-0.2,0.8-0.8v-3.7C60.6,94,60.3,93.8,59.8,93.8z"/>
	<path class="st2" d="M64.5,100h-0.3c-0.2,0-0.3-0.1-0.3-0.3v-6.3c0-0.2,0.1-0.3,0.3-0.3h0.3c0.2,0,0.3,0.1,0.3,0.3v6.3
		C64.8,99.9,64.7,100,64.5,100z"/>
	<path class="st2" d="M70.5,93.4l-1.3,6.3c0,0.2-0.2,0.3-0.4,0.3h-0.4c-0.2,0-0.3-0.1-0.4-0.3l-1.3-6.3c0-0.2,0.1-0.4,0.3-0.4h0.3
		c0.2,0,0.3,0.1,0.4,0.3l0.9,5.2l0.9-5.2c0-0.2,0.2-0.3,0.3-0.3h0.3C70.4,93,70.5,93.1,70.5,93.4z"/>
	<path class="st2" d="M75.1,100h-2.3c-0.2,0-0.3-0.1-0.3-0.3v-6.3c0-0.2,0.1-0.3,0.3-0.3h2.3c0.2,0,0.3,0.1,0.3,0.3v0.2
		c0,0.2-0.1,0.3-0.3,0.3h-1.7V96h1.4c0.2,0,0.3,0.1,0.3,0.3v0.2c0,0.2-0.1,0.3-0.3,0.3h-1.4v2.3h1.7c0.2,0,0.3,0.1,0.3,0.3v0.2
		C75.4,99.9,75.3,100,75.1,100z"/>
	<path class="st2" d="M80.8,100h-0.3c-0.2,0-0.3-0.1-0.4-0.3l-0.9-2.6h0h-0.8v2.5c0,0.2-0.1,0.3-0.3,0.3h-0.3
		c-0.2,0-0.3-0.1-0.3-0.3v-6.3c0-0.2,0.1-0.3,0.3-0.3h1.4c1.1,0,1.7,0.4,1.7,1.5v1.2c0,0.7-0.3,1.1-0.8,1.3l0.9,2.6
		C81.1,99.8,81,100,80.8,100z M78.4,96.3h0.8c0.5,0,0.8-0.2,0.8-0.8v-0.8c0-0.6-0.3-0.8-0.8-0.8h-0.8V96.3z"/>
	<path class="st2" d="M86,95.5h-0.3c-0.2,0-0.3-0.1-0.3-0.3v-0.6c0-0.6-0.3-0.8-0.8-0.8s-0.8,0.2-0.8,0.8V95c0,0.4,0.2,0.6,0.5,0.8
		l0.9,0.5c0.6,0.3,1,0.7,1,1.3v1c0,1-0.6,1.5-1.7,1.5h0c-1.1,0-1.7-0.4-1.7-1.5v-0.9c0-0.2,0.1-0.3,0.3-0.3h0.3
		c0.2,0,0.3,0.1,0.3,0.3v0.7c0,0.5,0.3,0.8,0.8,0.8c0.5,0,0.8-0.2,0.8-0.8v-0.5c0-0.4-0.1-0.6-0.6-0.8L84,96.6c-0.6-0.4-1-0.7-1-1.3
		v-0.9c0-1,0.7-1.4,1.7-1.4h0c1,0,1.7,0.4,1.7,1.4v0.8C86.3,95.3,86.2,95.5,86,95.5z"/>
	<path class="st2" d="M89.2,100h-0.3c-0.2,0-0.3-0.1-0.3-0.3v-6.3c0-0.2,0.1-0.3,0.3-0.3h0.3c0.2,0,0.3,0.1,0.3,0.3v6.3
		C89.5,99.9,89.4,100,89.2,100z"/>
	<path class="st2" d="M94.8,93.3v0.2c0,0.2-0.1,0.3-0.3,0.3h-0.9v5.8c0,0.2-0.1,0.3-0.3,0.3h-0.3c-0.2,0-0.3-0.1-0.3-0.3v-5.8h-0.9
		c-0.2,0-0.3-0.1-0.3-0.3v-0.2c0-0.2,0.1-0.3,0.3-0.3h2.7C94.7,93,94.8,93.1,94.8,93.3z"/>
	<path class="st2" d="M98.6,99.7c0,0.2-0.1,0.3-0.3,0.3H98c-0.2,0-0.3-0.1-0.3-0.3v-2.2l-1.3-4c-0.1-0.2,0-0.4,0.3-0.4h0.3
		c0.2,0,0.3,0.1,0.4,0.3l0.9,3.1l0.9-3.1c0.1-0.2,0.2-0.3,0.4-0.3h0.3c0.2,0,0.3,0.1,0.3,0.4l-1.3,4V99.7z"/>
	<path class="st2" d="M5.9,105.2v4c0,1-0.6,1.5-1.7,1.5H2.8c-0.2,0-0.3-0.1-0.3-0.3V104c0-0.2,0.1-0.3,0.3-0.3h1.4
		C5.2,103.7,5.9,104.1,5.9,105.2z M4.1,104.5H3.4v5.3h0.8c0.5,0,0.8-0.2,0.8-0.8v-3.7C4.9,104.7,4.6,104.5,4.1,104.5z"/>
	<path class="st2" d="M11.3,110.7H11c-0.2,0-0.3-0.1-0.4-0.3l-0.2-1.3H8.9l-0.2,1.3c0,0.2-0.2,0.3-0.3,0.3H8c-0.2,0-0.3-0.1-0.3-0.4
		L9,104c0-0.2,0.2-0.3,0.4-0.3h0.6c0.2,0,0.3,0.1,0.4,0.3l1.3,6.3C11.6,110.6,11.5,110.7,11.3,110.7z M10.2,108.3l-0.6-3.4L9,108.3
		H10.2z"/>
	<path class="st2" d="M16,104v0.2c0,0.2-0.1,0.3-0.3,0.3h-0.9v5.8c0,0.2-0.1,0.3-0.3,0.3h-0.3c-0.2,0-0.3-0.1-0.3-0.3v-5.8h-0.9
		c-0.2,0-0.3-0.1-0.3-0.3V104c0-0.2,0.1-0.3,0.3-0.3h2.7C15.9,103.7,16,103.8,16,104z"/>
	<path class="st2" d="M20.6,110.7h-0.3c-0.2,0-0.3-0.1-0.4-0.3l-0.2-1.3h-1.5l-0.2,1.3c0,0.2-0.2,0.3-0.3,0.3h-0.3
		c-0.2,0-0.3-0.1-0.3-0.4l1.3-6.3c0-0.2,0.2-0.3,0.4-0.3h0.6c0.2,0,0.3,0.1,0.4,0.3l1.3,6.3C20.9,110.6,20.8,110.7,20.6,110.7z
		 M19.5,108.3l-0.6-3.4l-0.6,3.4H19.5z"/>
	<path class="st2" d="M26.2,110.7h-0.3c-0.2,0-0.3-0.1-0.3-0.3V104c0-0.2,0.1-0.3,0.3-0.3h0.3c0.2,0,0.3,0.1,0.3,0.3v6.3
		C26.5,110.6,26.4,110.7,26.2,110.7z"/>
	<path class="st2" d="M29.4,110.7h-0.2c-0.2,0-0.3-0.1-0.3-0.3V104c0-0.2,0.1-0.3,0.3-0.3h0.3c0.2,0,0.3,0.1,0.4,0.3l1.7,4.5V104
		c0-0.2,0.1-0.3,0.3-0.3h0.2c0.2,0,0.3,0.1,0.3,0.3v6.3c0,0.2-0.1,0.3-0.3,0.3h-0.3c-0.2,0-0.3-0.1-0.4-0.3l-1.7-4.7v4.6
		C29.7,110.6,29.6,110.7,29.4,110.7z"/>
	<path class="st2" d="M34.8,110.4V104c0-0.2,0.1-0.3,0.3-0.3h2.2c0.2,0,0.3,0.1,0.3,0.3v0.2c0,0.2-0.1,0.3-0.3,0.3h-1.6v2.2H37
		c0.2,0,0.3,0.1,0.3,0.3v0.2c0,0.2-0.1,0.3-0.3,0.3h-1.3v2.7c0,0.2-0.1,0.3-0.3,0.3h-0.3C34.9,110.7,34.8,110.6,34.8,110.4z"/>
	<path class="st2" d="M42.9,110.7h-0.3c-0.2,0-0.3-0.1-0.4-0.3l-0.9-2.6h0h-0.8v2.5c0,0.2-0.1,0.3-0.3,0.3h-0.3
		c-0.2,0-0.3-0.1-0.3-0.3V104c0-0.2,0.1-0.3,0.3-0.3h1.4c1.1,0,1.7,0.4,1.7,1.5v1.2c0,0.7-0.3,1.1-0.8,1.3l0.9,2.6
		C43.2,110.5,43.1,110.7,42.9,110.7z M40.5,107h0.8c0.5,0,0.8-0.2,0.8-0.8v-0.8c0-0.6-0.3-0.8-0.8-0.8h-0.8V107z"/>
	<path class="st2" d="M48.5,110.7h-0.3c-0.2,0-0.3-0.1-0.4-0.3l-0.2-1.3h-1.5l-0.2,1.3c0,0.2-0.2,0.3-0.3,0.3h-0.3
		c-0.2,0-0.3-0.1-0.3-0.4l1.3-6.3c0-0.2,0.2-0.3,0.4-0.3h0.6c0.2,0,0.3,0.1,0.4,0.3l1.3,6.3C48.8,110.6,48.7,110.7,48.5,110.7z
		 M47.4,108.3l-0.6-3.4l-0.6,3.4H47.4z"/>
	<path class="st2" d="M53.5,106.2h-0.3c-0.2,0-0.3-0.1-0.3-0.3v-0.6c0-0.6-0.3-0.8-0.8-0.8s-0.8,0.2-0.8,0.8v0.5
		c0,0.4,0.2,0.6,0.5,0.8l0.9,0.5c0.6,0.3,1,0.7,1,1.3v1c0,1-0.6,1.5-1.7,1.5h0c-1.1,0-1.7-0.4-1.7-1.5v-0.9c0-0.2,0.1-0.3,0.3-0.3
		h0.3c0.2,0,0.3,0.1,0.3,0.3v0.7c0,0.5,0.3,0.8,0.8,0.8c0.5,0,0.8-0.2,0.8-0.8v-0.5c0-0.4-0.1-0.6-0.6-0.8l-0.9-0.5
		c-0.6-0.4-1-0.7-1-1.3v-0.9c0-1,0.7-1.4,1.7-1.4h0c1,0,1.7,0.4,1.7,1.4v0.8C53.8,106,53.7,106.2,53.5,106.2z"/>
	<path class="st2" d="M58.9,104v0.2c0,0.2-0.1,0.3-0.3,0.3h-0.9v5.8c0,0.2-0.1,0.3-0.3,0.3H57c-0.2,0-0.3-0.1-0.3-0.3v-5.8h-0.9
		c-0.2,0-0.3-0.1-0.3-0.3V104c0-0.2,0.1-0.3,0.3-0.3h2.7C58.7,103.7,58.9,103.8,58.9,104z"/>
	<path class="st2" d="M64,110.7h-0.3c-0.2,0-0.3-0.1-0.4-0.3l-0.9-2.6h0h-0.8v2.5c0,0.2-0.1,0.3-0.3,0.3H61c-0.2,0-0.3-0.1-0.3-0.3
		V104c0-0.2,0.1-0.3,0.3-0.3h1.4c1.1,0,1.7,0.4,1.7,1.5v1.2c0,0.7-0.3,1.1-0.8,1.3l0.9,2.6C64.3,110.5,64.2,110.7,64,110.7z
		 M61.6,107h0.8c0.5,0,0.8-0.2,0.8-0.8v-0.8c0-0.6-0.3-0.8-0.8-0.8h-0.8V107z"/>
	<path class="st2" d="M69.8,104v5.3c0,1-0.6,1.5-1.7,1.5h0c-1.1,0-1.7-0.4-1.7-1.5V104c0-0.2,0.1-0.3,0.3-0.3H67
		c0.2,0,0.3,0.1,0.3,0.3v5.1c0,0.6,0.2,0.8,0.8,0.8c0.5,0,0.8-0.2,0.8-0.8V104c0-0.2,0.1-0.3,0.3-0.3h0.3
		C69.7,103.7,69.8,103.8,69.8,104z"/>
	<path class="st2" d="M75.4,108.2v1.1c0,1-0.6,1.5-1.7,1.5h0c-1.1,0-1.7-0.4-1.7-1.5v-4.2c0-1,0.6-1.5,1.7-1.5h0
		c1.1,0,1.7,0.5,1.7,1.5v0.9c0,0.2-0.1,0.3-0.3,0.3h-0.3c-0.2,0-0.3-0.1-0.3-0.3v-0.7c0-0.6-0.3-0.8-0.8-0.8s-0.8,0.2-0.8,0.8v3.8
		c0,0.6,0.3,0.8,0.8,0.8s0.8-0.2,0.8-0.8v-0.9c0-0.2,0.1-0.3,0.3-0.3h0.3C75.3,107.9,75.4,108,75.4,108.2z"/>
	<path class="st2" d="M80.6,104v0.2c0,0.2-0.1,0.3-0.3,0.3h-0.9v5.8c0,0.2-0.1,0.3-0.3,0.3h-0.3c-0.2,0-0.3-0.1-0.3-0.3v-5.8h-0.9
		c-0.2,0-0.3-0.1-0.3-0.3V104c0-0.2,0.1-0.3,0.3-0.3h2.7C80.4,103.7,80.6,103.8,80.6,104z"/>
	<path class="st2" d="M85.8,104v5.3c0,1-0.6,1.5-1.7,1.5h0c-1.1,0-1.7-0.4-1.7-1.5V104c0-0.2,0.1-0.3,0.3-0.3H83
		c0.2,0,0.3,0.1,0.3,0.3v5.1c0,0.6,0.2,0.8,0.8,0.8c0.5,0,0.8-0.2,0.8-0.8V104c0-0.2,0.1-0.3,0.3-0.3h0.3
		C85.7,103.7,85.8,103.8,85.8,104z"/>
	<path class="st2" d="M91.4,110.7h-0.3c-0.2,0-0.3-0.1-0.4-0.3l-0.9-2.6h0H89v2.5c0,0.2-0.1,0.3-0.3,0.3h-0.3
		c-0.2,0-0.3-0.1-0.3-0.3V104c0-0.2,0.1-0.3,0.3-0.3h1.4c1.1,0,1.7,0.4,1.7,1.5v1.2c0,0.7-0.3,1.1-0.8,1.3l0.9,2.6
		C91.7,110.5,91.6,110.7,91.4,110.7z M89,107h0.8c0.5,0,0.8-0.2,0.8-0.8v-0.8c0-0.6-0.3-0.8-0.8-0.8H89V107z"/>
	<path class="st2" d="M96.4,110.7h-2.3c-0.2,0-0.3-0.1-0.3-0.3V104c0-0.2,0.1-0.3,0.3-0.3h2.3c0.2,0,0.3,0.1,0.3,0.3v0.2
		c0,0.2-0.1,0.3-0.3,0.3h-1.7v2.2h1.4c0.2,0,0.3,0.1,0.3,0.3v0.2c0,0.2-0.1,0.3-0.3,0.3h-1.4v2.3h1.7c0.2,0,0.3,0.1,0.3,0.3v0.2
		C96.8,110.6,96.7,110.7,96.4,110.7z"/>
</g>
</svg>
